<?xml version="1.0" encoding="utf-8"?>
<!-- Generator: Adobe Illustrator 25.0.1, SVG Export Plug-In . SVG Version: 6.00 Build 0)  -->
<svg version="1.1" id="Layer_1" xmlns="http://www.w3.org/2000/svg" xmlns:xlink="http://www.w3.org/1999/xlink" x="0px" y="0px"
	 viewBox="0 0 527 527" style="enable-background:new 0 0 527 527;" xml:space="preserve">
<style type="text/css">
	.st0{stroke:#000000;stroke-width:5;stroke-linecap:square;stroke-miterlimit:10;}
	.st1{fill:none;stroke:#754C28;stroke-width:10;stroke-linecap:square;stroke-miterlimit:10;}
	.st2{fill:none;stroke:#231F20;stroke-width:8;stroke-linecap:square;stroke-miterlimit:10;}
	.st3{fill:none;stroke:#FFFFFF;stroke-width:4;stroke-linecap:square;stroke-miterlimit:10;}
	.st4{fill:none;stroke:#754C28;stroke-width:23;stroke-linecap:square;stroke-linejoin:bevel;stroke-miterlimit:10;}
	.st5{fill:none;stroke:#754C28;stroke-width:23;stroke-linecap:square;stroke-miterlimit:10;}
	.st6{fill:none;stroke:#231F20;stroke-width:20;stroke-linecap:square;stroke-linejoin:bevel;stroke-miterlimit:10;}
	.st7{fill:none;stroke:#231F20;stroke-width:20;stroke-linecap:square;stroke-miterlimit:10;}
	.st8{fill:none;stroke:#FFFFFF;stroke-width:15.754;stroke-linecap:square;stroke-linejoin:bevel;stroke-miterlimit:10;}
	.st9{fill:none;stroke:#FFFFFF;stroke-width:16.228;stroke-linecap:square;stroke-miterlimit:10;}
</style>
<circle class="st0" cx="263.5" cy="263.5" r="261"/>
<circle id="brown_inner_circle" class="st1" cx="263.5" cy="263.5" r="234"/>
<circle id="black_inner_circle" class="st2" cx="263.5" cy="263.5" r="234"/>
<circle id="white_inner_circle" class="st3" cx="263.5" cy="263.5" r="234"/>
<g id="initials_brown">
	<path class="st4" d="M268.11,128.82C242.46,94.41,191.91,87.6,156,110.06c-62.34,38.98-72.27,143.11-9.17,185.98
		c24.53,16.66,55.33,21.36,84.99,21.29c54.59-0.12,109.31-4.57,163.99-5.13"/>
	<path class="st5" d="M397.53,224.89l-137.43,1.4c0.6,7.49,1.2,14.98,1.8,22.48l1.54,150.79c9.09-0.09,18.1-1.58,27.15-2.36
		l111.27-1.14"/>
</g>
<g id="initials_black">
	<path class="st6" d="M268.11,128.82C242.46,94.41,191.91,87.6,156,110.06c-62.34,38.98-72.27,143.11-9.17,185.98
		c24.53,16.66,55.33,21.36,84.99,21.29c54.59-0.12,109.31-4.57,163.99-5.13"/>
	<path class="st7" d="M397.53,224.89l-137.43,1.4c0.6,7.49,1.2,14.98,1.8,22.48l1.54,150.79c9.09-0.09,18.1-1.58,27.15-2.36
		l111.27-1.14"/>
</g>
<g id="initials_white_2_">
	<path class="st8" d="M268.11,128.82C242.46,94.41,191.91,87.6,156,110.06c-62.34,38.98-72.27,143.11-9.17,185.98
		c24.53,16.66,55.33,21.36,84.99,21.29c54.59-0.12,109.31-4.57,163.99-5.13"/>
	<path class="st9" d="M397.53,224.89l-137.43,1.4c0.6,7.49,1.2,14.98,1.8,22.48l1.54,150.79c9.09-0.09,18.1-1.58,27.15-2.36
		l111.27-1.14"/>
</g>
</svg>
