<?xml version="1.0" encoding="utf-8"?>
<!-- Generator: Adobe Illustrator 25.1.0, SVG Export Plug-In . SVG Version: 6.00 Build 0)  -->
<svg version="1.1" xmlns="http://www.w3.org/2000/svg" xmlns:xlink="http://www.w3.org/1999/xlink" x="0px" y="0px"
	 viewBox="0 0 1920 1080" style="enable-background:new 0 0 1920 1080;" xml:space="preserve">
<style type="text/css">
	.st0{opacity:0.35;}
	.st1{opacity:0.4;}
	.st2{fill:#FFFFFF;}
</style>
<g id="Layer_2">
	<g class="st0">
		<circle cx="960" cy="540" r="107"/>
		<path d="M960,435.5c57.62,0,104.5,46.88,104.5,104.5S1017.62,644.5,960,644.5S855.5,597.62,855.5,540S902.38,435.5,960,435.5
			 M960,430.5c-60.48,0-109.5,49.02-109.5,109.5S899.52,649.5,960,649.5s109.5-49.02,109.5-109.5S1020.48,430.5,960,430.5L960,430.5
			z"/>
	</g>
</g>
<g id="Layer_1">
	<g class="st1">
		<path class="st2" d="M929.29,589.41c-4.38,0-4.72-5.17-4.72-6.76v-85.3c0-1.59,0.34-6.76,4.72-6.76c1.34,0,2.91,0.49,4.52,1.43
			l73.87,42.65c2.61,1.51,4.11,3.45,4.11,5.33s-1.5,3.83-4.11,5.33l-73.87,42.65C932.2,588.92,930.63,589.41,929.29,589.41
			C929.29,589.41,929.29,589.41,929.29,589.41z"/>
		<path d="M929.29,493.09c0.89,0,2.05,0.39,3.27,1.09l73.87,42.65c2.11,1.22,2.86,2.47,2.86,3.17s-0.75,1.95-2.86,3.17l-73.87,42.65
			c-1.22,0.7-2.38,1.09-3.27,1.09c-1.93,0-2.22-2.67-2.22-4.26v-85.3C927.07,495.76,927.36,493.09,929.29,493.09 M929.29,488.09
			c-4.27,0-7.22,3.4-7.22,9.26v85.3c0,5.86,2.95,9.26,7.22,9.26c1.74,0,3.7-0.57,5.77-1.76l73.87-42.65c7.14-4.12,7.14-10.88,0-15
			l-73.87-42.65C932.99,488.65,931.03,488.09,929.29,488.09L929.29,488.09z"/>
	</g>
</g>
</svg>
